#N canvas 658 172 1070 528 12;
#X obj 14 26 hsl 205 22 0 1 0 0 empty empty empty 10 -8 0 12 #fcfbf7 #87aaff #000000 0 1;
#X floatatom 225 27 5 0 0 1 \$4 - - 0;
#X obj 225 176 outlet;
#X msg 225 72 set \$1;
#X obj 11 -26 inlet;
#X obj 11 176 outlet;
#X obj 11 138 prepend \$1;
#X msg 336 72 set \$1;
#X msg 655 383 range \$1 \$2;
#X obj 625 300 f 0;
#X obj 669 300 f 1;
#X obj 581 130 pdcontrol;
#X msg 581 84 args;
#X obj 552 17 loadbang;
#X obj 552 300 symbol;
#X obj 552 51 t b b;
#X obj 638 342 pack;
#X obj 552 433 s \$0.s;
#X obj 65 -28 r \$0.s;
#X msg 552 383 label \$1;
#X obj 336 26 receive \$1;
#X obj 581 171 unpack s f f s, f 18;
#X connect 0 0 1 0;
#X connect 1 0 2 0;
#X connect 1 0 6 0;
#X connect 1 0 3 0;
#X connect 3 0 0 0;
#X connect 4 0 0 0;
#X connect 6 0 5 0;
#X connect 7 0 0 0;
#X connect 8 0 17 0;
#X connect 9 0 16 0;
#X connect 10 0 16 1;
#X connect 11 0 21 0;
#X connect 12 0 11 0;
#X connect 13 0 15 0;
#X connect 14 0 19 0;
#X connect 15 0 10 0;
#X connect 15 0 9 0;
#X connect 15 0 14 0;
#X connect 15 1 12 0;
#X connect 16 0 8 0;
#X connect 18 0 0 0;
#X connect 19 0 17 0;
#X connect 20 0 6 0;
#X connect 20 0 2 0;
#X connect 20 0 7 0;
#X connect 21 0 14 1;
#X connect 21 1 9 1;
#X connect 21 2 10 1;
#X coords 0 0 1 1 291 41 2 8 9;
