#N canvas 629 722 949 532 12;
#X declare -path ./assets;
#N canvas 208 208 1043 255 _loadBuffers 0;
#X obj 34 92 soundfiler;
#X obj 32 25 loadbang;
#X obj 58 195 declare -path ./assets;
#X obj 122 118 array define _gf_buf_stereopan;
#X msg 33 57 read -resize bassColLengo.wav _gf_buf_stereopan;
#X connect 1 0 4 0;
#X connect 4 0 0 0;
#X restore 519 11 pd _loadBuffers;
#X obj 248 205 noise~;
#X obj 35 278 grainflow.stereoPan~ 0.5 1;
#N canvas 312 312 1710 849 (subpatch) 0;
#X obj 297 55 snapshot~;
#X obj 377 55 snapshot~;
#X obj 8 5 vsl 19 162 0 72 0 0 empty empty empty 0 -9 0 12 #fcfcfc #000000 #000000 0 1;
#X obj 289 99 rmstodb;
#X obj 373 99 rmstodb;
#X obj 31 6 vsl 19 162 0 72 0 0 empty empty empty 0 -9 0 12 #fcfcfc #000000 #000000 0 1;
#X obj 296 0 inlet~;
#X obj 307 19 snake~ out 2;
#X obj 499 27 loadbang;
#X msg 502 53 1;
#X obj 500 75 metro 66;
#X connect 0 0 3 0;
#X connect 1 0 4 0;
#X connect 3 0 2 0;
#X connect 4 0 5 0;
#X connect 6 0 7 0;
#X connect 6 1 0 0;
#X connect 6 1 1 0;
#X connect 7 0 0 0;
#X connect 7 1 1 0;
#X connect 8 0 9 0;
#X connect 9 0 10 0;
#X connect 10 0 1 0;
#X connect 10 0 0 0;
#X coords 0 1 100 -1 60 174 1 0 0;
#X restore 35 323 graph;
#X obj 158 205 phasor~ 16;
#X obj 134 436 dac~ 1;
#X obj 135 405 *~;
#X msg 35 143 panSpread \$1;
#X msg 147 155 panCenter \$1;
#X obj 37 87 hsl 162 19 0 1 0 0 empty empty empty -2 -10 0 12 #fcfcfc #000000 #000000 0 1;
#X obj 153 118 hsl 162 19 0 1 0 0 empty empty empty -2 -10 0 12 #fcfcfc #000000 #000000 0 1;
#X text 34 48 These are circular equal-power panners that allow easy stochastic panning of grains., f 90;
#X text 244 156 <= center position;
#X text 207 86 <= diffusion (bipolar);
#N canvas 0 50 450 300 refrence 0;
#X obj 23 70 cnv 15 600 9 empty empty ARGS: 0 20 0 14 #000000 #373737 0;
#X obj 23 163 cnv 15 600 9 empty empty INLETS: 0 20 0 14 #000000 #373737 0;
#X obj 23 249 cnv 15 600 9 empty empty OUTLETS: 0 20 0 14 #000000 #373737 0;
#X obj 23 328 cnv 15 600 9 empty empty MESSAGES: 0 20 0 14 #000000 #373737 0;
#X text 23 278 0;
#X text 23 15 [grainflow.stereoPan~);
#X text 23 35 Stochastically pan grains in stereo;
#X text 23 195 (mc sig) Grains, f 69;
#X text 23 214 (mc sig )Grain State trigger, f 79;
#X text 47 278 (mc sig) Stereo Panned Grains;
#X text 47 297 ([TODO] (list) Grain Panning Info;
#X text 23 98 (float) panCenter- the central point where grains will deviate (0-1);
#X text 23 116 (float) panSpread- deviation around the central point where grains are panned (0-1), f 85;
#X text 23 385 panSpread {f};
#X text 23 362 panCenter {f};
#X restore 412 11 pd refrence;
#X obj 136 236 grainflow~ _gf_buf_stereopan 1;
#X text 155 180 <= turn on;
#X obj 15 36 cnv 15 685 8 empty empty Grainflow.stereoPan~ 20 -12 0 30 #000000 #373737 0;
#X obj 146 374 tgl 25 0 empty empty empty 17 7 0 10 #e4e4e4 #4d4d4d #373737 0 1;
#X obj 121 181 tgl 25 0 empty empty empty 17 7 0 10 #e4e4e4 #4d4d4d #373737 0 1;
#X obj 449 441 cnv 4 182 47 empty empty Also\ See 0 -8 0 18 #d0d0d0 #373737 0;
#X obj 463 451 grainflow.multiPan~;
#X connect 1 0 15 1;
#X connect 2 0 6 0;
#X connect 2 0 3 0;
#X connect 4 0 15 0;
#X connect 6 0 5 0;
#X connect 7 0 2 0;
#X connect 8 0 2 0;
#X connect 9 0 7 0;
#X connect 10 0 8 0;
#X connect 15 0 2 0;
#X connect 15 2 2 1;
#X connect 18 0 6 1;
#X connect 19 0 15 0;
