#N canvas 0 50 450 300 mc_fm 1;
#X obj 82 305 osc~;
#X obj 182 176 osc~;
#X obj 182 212 *~;
#X obj 82 273 +~;
#X obj 182 128 *~;
#X obj 192 97 samphold~;
#X obj 82 97 samphold~;
#X obj 301 212 samphold~;
#X obj 182 242 *~;
#X obj 82 338 outlet~;
#X obj 82 54 inlet~;
#X obj 182 52 inlet~;
#X obj 301 185 inlet~;
#X obj 353 17 inlet~;
#X connect 0 0 9 0;
#X connect 1 0 2 0;
#X connect 2 0 8 0;
#X connect 3 0 0 0;
#X connect 4 0 1 0;
#X connect 4 0 2 1;
#X connect 5 0 4 1;
#X connect 6 0 3 0;
#X connect 6 0 4 0;
#X connect 7 0 8 1;
#X connect 8 0 3 1;
#X connect 10 0 6 0;
#X connect 11 0 5 0;
#X connect 12 0 7 0;
#X connect 13 0 7 1;
#X connect 13 0 5 1;
#X connect 13 0 6 1;
