#N canvas 1060 569 450 300 12;
#X obj 68 87 osc~ 400;
#X obj 26 58 tgl 19 0 empty empty empty 0 -10 0 12 #fcfcfc #000000 #000000 0 1;
#X obj 68 130 grainflow.live~ live 4;
#X obj 70 211 dac~;
#X obj 69 165 snake~ out 4;
#X msg 271 46;
#X obj 249 129 array define live 410000;
#X obj 85 -1 osc~ 0.2;
#X obj 79 38 expr~ $v1*500 + 750;
#X msg 235 10 delayRandom 1000;
#X obj 137 85 phasor~ 20;
#X connect 0 0 2 0;
#X connect 1 0 2 0;
#X connect 2 0 4 0;
#X connect 4 0 3 0;
#X connect 4 1 3 1;
#X connect 4 2 3 0;
#X connect 4 3 3 1;
#X connect 5 0 2 0;
#X connect 7 0 8 0;
#X connect 8 0 0 0;
#X connect 9 0 2 0;
#X connect 10 0 2 1;
