#N canvas 307 162 734 565 12;
#X declare -path ./assets;
#N canvas 0 0 450 250 (subpatch) 0;
#X array _gf_record 41000 float 0;
#X coords 0 1 40999 -1 236 69 1;
#X restore 236 364 graph;
#X obj 138 231 grainflow.record~ _gf_record;
#X obj 138 174 tgl 25 0 empty empty empty 17 7 0 10 #e4e4e4 #4d4d4d #373737 0 1;
#X obj 354 290 snapshot~, f 10;
#X obj 354 262 metro 33, f 9;
#X obj 355 231 tgl 23 0 empty empty empty 17 7 0 10 #e4e4e4 #4d4d4d #373737 0 1;
#X floatatom 354 321 8 0 0 0 - - - 16;
#X obj 58 280 phasor~ 8;
#X obj 25 280 tgl 25 0 empty empty empty 17 7 0 10 #e4e4e4 #4d4d4d #373737 0 1;
#X obj 58 371 grainflow.stereoPan~;
#X obj 58 413 dac~ 1;
#X obj 58 321 grainflow~ _gf_record 4 -delayRandom 500;
#X obj 229 190 readsf~ 1 262144;
#X obj 233 122 bng 19 250 50 0 empty empty empty 0 -10 0 12 #fcfcfc #000000 #000000;
#X text 262 123 <= Play soundfile;
#X msg 230 155 open frogs.wav 0 \, start;
#X obj 355 190 declare -path ./assets;
#X obj 14 41 cnv 15 685 8 empty empty Grainflow.record~ 20 -12 0 30 #000000 #373737 0;
#X text 23 53 A simple recording module that allows for more custom live granulation, f 66;
#N canvas 117 194 1164 1032 reference 0;
#X obj 14 21 cnv 15 600 9 empty empty ARGS: 0 20 0 14 #000000 #373737 0;
#X obj 14 81 cnv 15 600 9 empty empty INLETS: 0 20 0 14 #000000 #373737 0;
#X obj 14 146 cnv 15 600 9 empty empty OUTLETS: 0 20 0 14 #000000 #373737 0;
#X obj 14 205 cnv 15 600 9 empty empty MESSAGES: 0 20 0 14 #000000 #373737 0;
#X text 14 175 0;
#X text 14 113 (mc sig )Live Input, f 79;
#X text 14 238 rec {i}- toggles recording;
#X text 14 264 freeze {i}- freezes playback position;
#X text 14 -1 [grainflow.record~];
#X text 14 52 input-buffers- the buffers that will be used for live granulation;
#X text 38 175 (mc sig) Record Head;
#X restore 358 18 pd reference;
#X obj 438 488 cnv 4 189 40 empty empty Also\ See 0 -8 0 18 #d0d0d0 #373737 0;
#X obj 447 498 grainflow.live~ 0 0;
#X connect 1 0 11 1;
#X connect 1 0 3 0;
#X connect 2 0 1 0;
#X connect 3 0 6 0;
#X connect 4 0 3 0;
#X connect 5 0 4 0;
#X connect 7 0 11 0;
#X connect 8 0 11 0;
#X connect 9 0 10 0;
#X connect 11 0 9 0;
#X connect 11 2 9 1;
#X connect 12 0 1 0;
#X connect 13 0 15 0;
#X connect 15 0 12 0;
