#N canvas 629 722 949 532 12;
#X declare -path ./assets;
#X declare -path ./assets;
#N canvas 208 208 1043 255 _loadBuffers 0;
#X obj 34 92 soundfiler;
#X obj 122 118 array define _gf_buf;
#X obj 32 25 loadbang;
#X obj 58 195 declare -path ./assets;
#X msg 33 57 read -resize bassColLengo.wav _gf_buf;
#X connect 2 0 4 0;
#X connect 4 0 0 0;
#X restore 760 41 pd _loadBuffers;
#X obj 139 308 grainflow.multiPan~ 4 0 4;
#N canvas 312 312 1710 849 (subpatch) 0;
#X obj 297 55 snapshot~;
#X obj 377 55 snapshot~;
#X obj 467 56 snapshot~;
#X obj 547 56 snapshot~;
#X obj 8 5 vsl 19 162 0 72 0 0 empty empty empty 0 -9 0 12 #fcfcfc #000000 #000000 0 1;
#X obj 289 99 rmstodb;
#X obj 373 99 rmstodb;
#X obj 31 6 vsl 19 162 0 72 0 0 empty empty empty 0 -9 0 12 #fcfcfc #000000 #000000 0 1;
#X obj 53 6 vsl 19 162 0 72 0 0 empty empty empty 0 -9 0 12 #fcfcfc #000000 #000000 0 1;
#X obj 480 107 rmstodb;
#X obj 564 107 rmstodb;
#X obj 74 6 vsl 19 162 0 72 0 0 empty empty empty 0 -9 0 12 #fcfcfc #000000 #000000 0 1;
#X obj 296 0 inlet~;
#X obj 307 19 snake~ out 4;
#X connect 0 0 5 0;
#X connect 1 0 6 0;
#X connect 2 0 9 0;
#X connect 3 0 10 0;
#X connect 5 0 4 0;
#X connect 6 0 7 0;
#X connect 9 0 8 0;
#X connect 10 0 11 0;
#X connect 12 0 13 0;
#X connect 12 1 0 0;
#X connect 12 1 1 0;
#X connect 12 1 2 0;
#X connect 12 1 3 0;
#X connect 13 0 0 0;
#X connect 13 1 1 0;
#X connect 13 2 2 0;
#X connect 13 3 3 0;
#X coords 0 1 100 -1 103 180 1 0 0;
#X restore 32 362 graph;
#X msg 448 159 panSpread \$1;
#X msg 559 191 panCenter \$1;
#X msg 597 249 quantize \$1;
#X obj 453 91 hsl 162 19 0 1 0 0 empty empty empty -2 -10 0 12 #fcfcfc #000000 #000000 0 1;
#X obj 451 127 * 4;
#X obj 597 219 tgl 19 0 empty empty empty 0 -10 0 12 #fcfcfc #000000 #000000 0 1;
#X obj 138 407 dac~ 1;
#X obj 139 376 *~;
#X obj 162 339 tgl 19 0 empty empty empty 0 -10 0 12 #fcfcfc #000000 #000000 0 1;
#X obj 559 129 hsl 162 19 0 1 0 0 empty empty empty -2 -10 0 12 #fcfcfc #000000 #000000 0 1;
#X obj 557 165 * 4;
#X text 632 93 <= diffusion (unipolar);
#X text 728 124 <= center position;
#N canvas 208 208 1043 255 _loadBuffers 0;
#X obj 34 92 soundfiler;
#X obj 32 25 loadbang;
#X obj 58 195 declare -path ./assets;
#X obj 122 118 array define _gf_buf_multipan;
#X msg 33 57 read -resize bassColLengo.wav _gf_buf_multipan;
#X connect 1 0 4 0;
#X connect 4 0 0 0;
#X restore 250 7 pd _loadBuffers;
#X obj 187 197 tgl 19 0 empty empty empty 0 -10 0 12 #fcfcfc #000000 #000000 0 1;
#X obj 339 225 noise~;
#X obj 11 243 loadbang;
#X msg 14 269 1;
#X obj 216 220 phasor~ 16;
#X obj 12 291 metro 66;
#X msg 41 143 panSpread \$1;
#X msg 153 155 panCenter \$1;
#X obj 43 87 hsl 162 19 0 1 0 0 empty empty empty -2 -10 0 12 #fcfcfc #000000 #000000 0 1;
#X obj 159 118 hsl 162 19 0 1 0 0 empty empty empty -2 -10 0 12 #fcfcfc #000000 #000000 0 1;
#X text 23 30 These are circular equal-power panners that allow easy stochastic panning of grains., f 90;
#X text 250 156 <= center position;
#X text 213 86 <= diffusion (bipolar);
#X text 22 6 grainflow.stereoPan~;
#N canvas 0 50 450 300 refrence 0;
#X obj 23 70 cnv 15 600 9 empty empty ARGS: 0 20 0 14 #000000 #373737 0;
#X obj 23 163 cnv 15 600 9 empty empty INLETS: 0 20 0 14 #000000 #373737 0;
#X obj 23 249 cnv 15 600 9 empty empty OUTLETS: 0 20 0 14 #000000 #373737 0;
#X obj 23 328 cnv 15 600 9 empty empty MESSAGES: 0 20 0 14 #000000 #373737 0;
#X text 23 278 0;
#X text 23 35 Stochastically pan grains in stereo;
#X text 23 195 (mc sig) Grains, f 69;
#X text 23 214 (mc sig )Grain State trigger, f 79;
#X text 47 297 ([TODO] (list) Grain Panning Info;
#X text 23 385 panSpread {f};
#X text 23 362 panCenter {f};
#X text 23 15 [grainflow.multiPan~);
#X text 29 137 (float) panSpread- deviation around the central point where grains are panned (0-channels), f 85;
#X text 23 405 quantize {f} - panning values will snap to this value. To have the panner choose a speaker \, use 1, f 85;
#X text 47 278 (mc sig) Muitichannel Panned Grains, f 46;
#X text 29 119 (float) panCenter- the base point where grains will deviate (0-channels), f 82;
#X text 29 101 (float) channels- the number of channels to pan to, f 82;
#X restore 165 7 pd refrence;
#X text 213 195 <= turn on;
#X obj 194 251 grainflow~ _gf_buf_multipan 1;
#X connect 1 0 2 0;
#X connect 1 0 10 0;
#X connect 3 0 1 0;
#X connect 4 0 1 0;
#X connect 5 0 1 0;
#X connect 6 0 7 0;
#X connect 7 0 3 0;
#X connect 8 0 5 0;
#X connect 10 0 9 0;
#X connect 11 0 10 1;
#X connect 12 0 13 0;
#X connect 13 0 4 0;
#X connect 17 0 33 0;
#X connect 18 0 33 1;
#X connect 19 0 20 0;
#X connect 20 0 22 0;
#X connect 21 0 33 0;
#X connect 22 0 2 0;
#X connect 25 0 23 0;
#X connect 26 0 24 0;
#X connect 33 0 1 0;
#X connect 33 2 1 1;
