#N canvas 134 38 1535 998 12;
#X declare -lib pdlua;
#X declare -path ../grainflow;
#X obj 8 9 declare -lib pdlua;
#X obj 214 35 pdlua;
#X obj 109 124 soundfiler;
#X floatatom 109 152 7 0 0 0 - - - 12;
#X listbox 176 152 16 0 0 0 - - - 0;
#X obj 336 254 cnv 19 248 98 empty empty empty 20 12 0 12 #e0e0e0 #404040 0;
#N canvas 0 22 450 300 (subpatch) 0;
#X array sample2 99689 float 2;
#X coords 0 1 99689 -1 250 100 1 0 0;
#X restore 335 253 graph;
#X msg 38 365 buffername sample;
#X obj 109 180 else/samps2ms;
#X floatatom 109 242 7 0 0 0 - - - 0;
#X obj 110 216 expr 1/$f1*1000;
#X msg 797 105 state \$1;
#X obj 798 77 tgl 19 0 empty empty empty 0 -10 0 12 #fcfcfc #000000 #000000 0 1;
#X obj 848 166 phasor~ 8;
#X obj 812 469 s lua;
#X obj 54 579 r lua;
#X msg 667 197 ngrains \$1;
#X obj 884 466 print;
#X obj 854 390 route list;
#X obj 812 431 spigot;
#X obj 861 431 tgl 19 0 empty empty empty 0 -10 0 12 #fcfcfc #000000 #000000 0 1;
#X obj 883 430 spigot;
#X obj 932 430 tgl 19 0 empty empty empty 0 -10 0 12 #fcfcfc #000000 #000000 0 1;
#X obj 842 246 sig~;
#X obj 848 132 expr 1 / $f1 * 1000;
#X obj 902 333 grainflow.stereoPan~ 0.5 1;
#X msg 227 217 range 0 \$1;
#X obj 797 281 grainflow~ sample 12;
#X msg 244 499 hex \$1;
#X obj 244 523 else/colors -rgb;
#N canvas 894 296 390 482 label 0;
#X obj 102 80 vsl 15 128 0 255 0 0 empty empty empty 0 -9 0 10 #0800fc #fcfcfc #000000 0 1;
#X obj 109 225 t b f;
#X obj 81 80 vsl 15 128 0 255 0 0 empty empty empty 0 -9 0 10 #00fc00 #000000 #000000 0 1;
#X obj 61 80 vsl 15 128 0 255 0 0 empty empty empty 0 -9 0 10 #fc0000 #000000 #000000 0 1;
#X obj 81 250 t b f;
#X obj 221 257 makefilename %02x;
#X obj 141 284 makefilename %02x;
#X obj 61 321 makefilename %02x;
#X obj 61 416 outlet;
#X text 52 56 background;
#X msg 61 380 symbol #\$1\$2\$3;
#X obj 176 59 loadbang;
#X msg 176 91 set 255;
#X obj 176 176 route set;
#X obj 61 351 pack symbol symbol symbol;
#X connect 0 0 1 0;
#X connect 1 0 2 0;
#X connect 1 1 5 0;
#X connect 2 0 4 0;
#X connect 3 0 7 0;
#X connect 4 0 3 0;
#X connect 4 1 6 0;
#X connect 5 0 14 2;
#X connect 6 0 14 1;
#X connect 7 0 14 0;
#X connect 10 0 8 0;
#X connect 11 0 12 0;
#X connect 12 0 3 0;
#X connect 12 0 2 0;
#X connect 12 0 0 0;
#X connect 12 0 13 0;
#X connect 13 0 5 0;
#X connect 13 0 6 0;
#X connect 14 0 10 0;
#X coords 0 -1 1 1 80 170 2 50 50;
#X restore 245 317 pd label;
#X obj 388 526 hsl 128 18 0 127 0 0 empty empty Label 33 -13 0 20 #103a48 #000000 #000000 0 1;
#X msg 309 497 color \$1;
#X msg 243 589 grainColor \$1 \$2 \$3;
#X obj 244 560 spigot;
#X obj 293 560 tgl 19 0 empty empty empty 0 -10 0 12 #fcfcfc #000000 #000000 0 1;
#X obj 389 559 spigot;
#X obj 438 559 tgl 19 0 empty empty empty 0 -10 0 12 #fcfcfc #000000 #000000 0 1;
#N canvas 0 22 450 300 (subpatch) 0;
#X array sample 99689 float 2;
#X coords 0 1 99689 -1 250 100 1 0 0;
#X restore 339 137 graph;
#X msg 122 70 read -resize ballonTinCan.wav sample sample2;
#X msg 58 395 buffername sample sample2;
#X msg 6 73 \; pdluax reload;
#X text 601 295 ^this one uses two buffers;
#X msg 601 257 buf sample sample2;
#X msg 601 224 buf sample;
#X msg 122 100 read -resize spirt48.wav sample sample2;
#X obj 1075 712 phasor~ 20;
#X msg 1273 509 freeze \$1;
#X msg 555 718 rec \$1;
#X msg 616 718 play \$1;
#X obj 556 615 loadbang;
#X msg 559 647 1;
#X msg 1181 472 overdub \$1;
#X obj 1015 776 grainflow.stereoPan~;
#X msg 1183 437 0;
#X msg 1231 437 0.8;
#X text 1307 475 freezes the playhead, f 12;
#X text 647 653 rec controls if grainflow.live~ is actively recording. play controls playback, f 27;
#X text 1271 425 overdub mixes in the old array material with new material, f 22;
#X obj 601 540 tgl 25 0 empty empty empty 17 7 0 10 #e4e4e4 #4d4d4d #373737 0 1;
#X obj 984 515 bng 25 250 50 0 empty empty empty 17 7 0 10 #e4e4e4 #4d4d4d #373737;
#X obj 983 572 readsf~ 1 262144;
#X text 1013 514 <= Play soundfile;
#X text 641 546 <= A 1 will turn on grainflow.live~;
#X obj 1273 476 tgl 25 0 empty empty empty 17 7 0 10 #e4e4e4 #4d4d4d #373737 0 1;
#X obj 557 677 tgl 25 0 empty empty empty 17 7 0 10 #e4e4e4 #4d4d4d #373737 0 1;
#X obj 616 677 tgl 25 0 empty empty empty 17 7 0 10 #e4e4e4 #4d4d4d #373737 0 1;
#X text 598 518 Use grainflow for realtime granulation;
#X listbox 167 944 20 0 0 0 - - - 0;
#X obj 21 578 bng 19 250 50 0 empty empty empty 0 -10 0 12 #fcfcfc #000000 #000000;
#X floatatom 429 885 5 0 0 0 - - - 0;
#X msg 984 544 open spirt48.wav 0 \, start;
#X obj 929 802 route list;
#X obj 465 936 pr.slider readPosition;
#X obj 1053 178 pr.slider amp;
#X obj 1053 86 pr.slider grainsize 10 2000;
#X obj 1053 132 pr.slider delayRandom 0 500;
#X obj 1053 40 pr.slider grainPosition;
#X obj 1057 226 pr.slider ampRandom;
#X floatatom 667 152 5 0 0 0 - - - 24;
#X obj 478 885 s grainPosition;
#X obj 489 836 unpack f f;
#X obj 603 887 s amp;
#X obj 240 619 s lua;
#X msg 70 433 buffername live;
#X obj 929 950 s lua;
#X obj 1001 947 print;
#X obj 929 912 spigot;
#X obj 978 912 tgl 19 0 empty empty empty 0 -10 0 12 #fcfcfc #000000 #000000 0 1;
#X obj 1000 911 spigot;
#X obj 1049 911 tgl 19 0 empty empty empty 0 -10 0 12 #fcfcfc #000000 #000000 0 1;
#X obj 1010 745 grainflow.live~ sampleLive 8;
#X listbox 1096 947 20 0 0 0 - - - 0;
#X obj 1076 679 expr 1 / $f1 * 1000;
#X obj 1252 542 pr.slider grainslize 10 500;
#X obj 1253 629 pr.slider delayRandom 0 2500;
#X obj 1253 676 pr.slider amp;
#X obj 1254 724 pr.slider ampRandom;
#X msg 891 648 ngrains \$1;
#X floatatom 891 603 5 0 0 0 - - - 24;
#X msg 64 868 \; pdluax reload;
#X obj 8 36 declare -path ../grainflow;
#X obj 1253 585 pr.slider delay 0 500;
#X obj 1096 888 route recordHead recordHeadSamps;
#X listbox 1205 915 20 0 0 0 - - - 0;
#X obj 667 814 output~;
#X obj 686 786 snake~ out 2, f 15;
#X obj 1380 814 else/ms2samps;
#X floatatom 1381 786 5 0 0 0 - - - 0;
#X floatatom 1380 840 10 0 0 0 - - - 0;
#X text 1425 861 set size;
#X obj 1379 884 array size sampleLive;
#X obj 1149 846 array define sampleLive 48000;
#X obj 903 367 throw~ dac 2;
#X obj 1015 807 throw~ dac 2;
#X obj 689 744 catch~ dac 2;
#X obj 238 874 print;
#X msg 43 499 waveformColor 100 120 135;
#X msg 31 546 list waveformColor 200 255 150;
#X msg 389 589 list waveformColor \$1 \$2 \$3;
#X obj 65 650 pr.wave sample;
#X obj 730 449 s lua;
#X obj 730 411 spigot;
#X obj 779 411 tgl 19 0 empty empty empty 0 -10 0 12 #fcfcfc #000000 #000000 0 1;
#X obj 986 417 route bufferList;
#X obj 434 456 hsl 162 19 0 127 0 0 empty empty empty -2 -10 0 12 #fcfcfc #000000 #000000 0 1;
#X msg 306 619 setsize 200 100;
#X msg 410 666 setsize 500 100;
#X connect 2 0 3 0;
#X connect 2 1 4 0;
#X connect 3 0 8 0;
#X connect 8 0 10 0;
#X connect 8 0 26 0;
#X connect 10 0 9 0;
#X connect 11 0 27 0;
#X connect 12 0 11 0;
#X connect 13 0 27 0;
#X connect 15 0 120 0;
#X connect 16 0 27 0;
#X connect 18 0 19 0;
#X connect 18 0 21 0;
#X connect 18 0 124 0;
#X connect 19 0 14 0;
#X connect 20 0 19 1;
#X connect 21 0 17 0;
#X connect 22 0 21 1;
#X connect 23 0 27 1;
#X connect 24 0 13 0;
#X connect 25 0 113 0;
#X connect 27 0 25 0;
#X connect 27 1 18 0;
#X connect 27 1 122 0;
#X connect 27 2 25 1;
#X connect 28 0 29 0;
#X connect 28 0 32 0;
#X connect 29 0 34 0;
#X connect 29 0 36 0;
#X connect 30 0 28 0;
#X connect 32 0 31 0;
#X connect 33 0 83 0;
#X connect 34 0 33 0;
#X connect 35 0 34 1;
#X connect 36 0 119 0;
#X connect 37 0 36 1;
#X connect 39 0 2 0;
#X connect 43 0 27 0;
#X connect 44 0 27 0;
#X connect 45 0 2 0;
#X connect 46 0 91 1;
#X connect 47 0 91 0;
#X connect 48 0 91 0;
#X connect 49 0 91 0;
#X connect 50 0 51 0;
#X connect 51 0 65 0;
#X connect 51 0 66 0;
#X connect 52 0 91 0;
#X connect 53 0 114 0;
#X connect 54 0 52 0;
#X connect 55 0 52 0;
#X connect 59 0 91 0;
#X connect 60 0 71 0;
#X connect 61 0 91 0;
#X connect 64 0 47 0;
#X connect 65 0 48 0;
#X connect 66 0 49 0;
#X connect 69 0 120 0;
#X connect 71 0 61 0;
#X connect 72 0 87 0;
#X connect 72 0 89 0;
#X connect 72 0 103 0;
#X connect 74 0 27 0;
#X connect 75 1 24 0;
#X connect 76 0 27 0;
#X connect 77 1 23 0;
#X connect 78 0 27 0;
#X connect 79 0 16 0;
#X connect 81 0 70 0;
#X connect 81 0 80 0;
#X connect 81 1 82 0;
#X connect 87 0 85 0;
#X connect 88 0 87 1;
#X connect 89 0 86 0;
#X connect 90 0 89 1;
#X connect 91 0 53 0;
#X connect 91 1 72 0;
#X connect 91 2 53 1;
#X connect 93 0 46 0;
#X connect 94 1 93 0;
#X connect 95 0 91 0;
#X connect 96 0 91 0;
#X connect 97 0 91 0;
#X connect 98 0 91 0;
#X connect 99 0 98 0;
#X connect 102 0 91 0;
#X connect 103 0 92 0;
#X connect 103 1 104 0;
#X connect 106 0 105 0;
#X connect 106 1 105 1;
#X connect 107 0 109 0;
#X connect 108 0 107 0;
#X connect 109 0 111 0;
#X connect 115 0 106 0;
#X connect 117 0 120 0;
#X connect 118 0 120 0;
#X connect 119 0 83 0;
#X connect 120 0 116 0;
#X connect 120 0 81 0;
#X connect 122 0 121 0;
#X connect 123 0 122 1;
#X connect 124 0 17 0;
#X connect 126 0 120 0;
#X connect 127 0 120 0;
