#N canvas 835 236 734 565 12;
#X obj 18 117 grainflow~ 0 0;
#X obj 18 151 grainflow.live~ 0 0;
#X obj 18 185 grainflow.record~;
#X obj 18 219 grainflow.stereoPan~;
#X obj 18 253 grainflow.multiPan~;
#X text 195 116 <= Granulate pd arrays;
#X text 195 150 <= Granulate live input;
#X text 154 184 <= Use with grainflow~ to perform more customized live granulation;
#X text 165 218 <= Stochastic spatialization in stereo;
#X text 165 252 <= Stochastic spatialization with multichannel circular panning;
#X obj 18 31 cnv 15 691 8 empty empty Grainflow\ Overview 0 -12 0 30 #000000 #000000 0;
#X obj 213 522 pdcontrol;
#X obj 18 108 cnv 15 8 8 empty empty Grainflow\ Externals 0 -7 0 18 #ffffff #000000 0;
#X text 18 46 Grainflow is designed to allow for flexible sample accurate synchronous granulation using multichannel signals., f 82;
#X msg 213 415 browse https://github.com/composingcap/Grainflow_Pd;
#X obj 213 387 bng 25 250 50 0 empty empty empty 17 7 0 10 #e4e4e4 #4d4d4d #373737;
#X text 251 386 <= Contribute;
#X obj 213 451 bng 25 250 50 0 empty empty empty 17 7 0 10 #e4e4e4 #4d4d4d #373737;
#X text 251 457 <= Discord;
#X msg 213 485 browse https://discord.gg/8RUUUvjVgK;
#X obj 13 284 grainflow.waveform;
#X text 336 283 <- grainflow.waveform;
#X obj 328 348 pdlua;
#X obj 27 415 grainflow_examples;
#X connect 14 0 11 0;
#X connect 15 0 14 0;
#X connect 17 0 19 0;
#X connect 19 0 11 0;
