#N canvas 1012 407 450 300 12;
#X obj 61 140 inlet~;
#X obj 173 140 inlet~;
#X obj 251 140 inlet~;
#X obj 336 140 inlet~;
#X obj 61 198 samphold~;
#X obj 173 198 samphold~;
#X obj 61 348 osc~;
#X obj 61 301 *~;
#X obj 173 236 *~;
#X obj 173 262 +~ 1;
#X obj 61 412 outlet~;
#X obj 61 379 *~;
#X obj 144 340 samphold~;
#X obj 146 312 sig~ 1;
#X connect 0 0 4 0;
#X connect 1 0 5 0;
#X connect 2 0 5 1;
#X connect 2 0 4 1;
#X connect 2 0 12 1;
#X connect 3 0 8 1;
#X connect 4 0 7 0;
#X connect 5 0 8 0;
#X connect 6 0 11 0;
#X connect 7 0 6 0;
#X connect 8 0 9 0;
#X connect 9 0 7 1;
#X connect 11 0 10 0;
#X connect 12 0 11 1;
#X connect 13 0 12 0;
