#N canvas 0 50 450 300 12;
#X obj 181 204 fexpr~ $f2*($x1[0] - $x1[-1]);
#X obj 334 167 samplerate~;
#X obj 181 327 phasor~;
#X obj 216 300 snapshot~;
#X obj 181 67 inlet~;
#X obj 416 149 t b;
#X obj 334 118 r pd-dsp-started;
#X obj 181 371 outlet~;
#X obj 181 289 *~ 1;
#X obj 294 74 inlet;
#X obj 380 83 inlet;
#X obj 181 239 expr~ max($v1 \, 0);
#X connect 0 0 11 0;
#X connect 1 0 0 1;
#X connect 2 0 7 0;
#X connect 3 0 2 1;
#X connect 4 0 3 0;
#X connect 4 0 0 0;
#X connect 5 0 3 0;
#X connect 6 0 3 0;
#X connect 6 0 1 0;
#X connect 8 0 2 0;
#X connect 9 0 8 1;
#X connect 10 0 5 0;
#X connect 11 0 8 0;
