#N canvas 733 172 1070 528 12;
#X obj 14 26 hsl 205 22 10 2000 0 0 empty empty grainsize 10 -8 0 12 #fcfbf7 #87aaff #000000 0 1;
#X floatatom 225 26 6 0 0 0 - - - 0;
#X obj 225 176 outlet;
#X msg 225 72 set \$1;
#X obj 11 -47 inlet;
#X obj 11 176 outlet;
#X obj 11 138 prepend \$1;
#X msg 292 72 set \$1;
#X msg 724 373 range \$1 \$2;
#X obj 694 290 f 0;
#X obj 738 290 f 1;
#X obj 650 120 pdcontrol;
#X msg 650 74 args;
#X obj 621 7 loadbang;
#X obj 650 161 unpack s f f, f 18;
#X obj 621 290 symbol;
#X obj 621 41 t b b;
#X obj 707 332 pack;
#X obj 621 423 s \$0.s;
#X obj -60 7 r \$0.s;
#X msg 621 373 label \$1;
#X obj 292 26 receive \$1;
#X connect 0 0 1 0;
#X connect 1 0 2 0;
#X connect 1 0 6 0;
#X connect 1 0 3 0;
#X connect 3 0 0 0;
#X connect 4 0 0 0;
#X connect 6 0 5 0;
#X connect 7 0 0 0;
#X connect 8 0 18 0;
#X connect 9 0 17 0;
#X connect 10 0 17 1;
#X connect 11 0 14 0;
#X connect 12 0 11 0;
#X connect 13 0 16 0;
#X connect 14 0 15 1;
#X connect 14 1 9 1;
#X connect 14 2 10 1;
#X connect 15 0 20 0;
#X connect 16 0 10 0;
#X connect 16 0 9 0;
#X connect 16 0 15 0;
#X connect 16 1 12 0;
#X connect 17 0 8 0;
#X connect 19 0 0 0;
#X connect 20 0 18 0;
#X connect 21 0 7 0;
#X connect 21 0 6 0;
#X connect 21 0 2 0;
#X coords 0 0 1 1 262 41 2 8 9;
